#!OML:ASF I:\Actors\actors\Patient Classification 2\Patient 1\Session 1\actor1.ASF
:FULLY-SPECIFIED
:DEGREES
789
root -1.1364 18.086 6.1736 -2.62808 -6.48647 -3.02991
lowerback 5.91675 -0.937775 2.08002
upperback -0.360327 -1.02456 2.15121
thorax -3.68903 -0.529561 1.1463
lowerneck -8.63357 -1.7115 -2.08535
upperneck 22.8941 -2.72838 2.83015
head 8.6064 -1.20061 1.03243
rclavicle 6.10642e-015 -1.31198e-014
rhumerus -42.5419 6.94183 -86.987
rradius 106.101
rwrist -17.6832
rhand -11.0417 -38.5928
rfingers 7.12502
rthumb 14.9803 -68.031
lclavicle 6.10642e-015 -1.31198e-014
lhumerus -45.8777 -31.4756 110.551
lradius 92.6858
lwrist 34.862
lhand -10.9985 -7.87936
lfingers 7.12502
lthumb 15.0219 21.5557
rfemur 15.5249 5.32171 20.0564
rtibia -4.76354
rfoot -15.6882 -10.7774
rtoes 4.478
lfemur 22.2326 -2.40682 -14.1029
ltibia -17.0043
lfoot -5.59999 22.7462
ltoes -10.3428
790
root -1.13792 18.0874 6.19111 -2.46011 -6.29518 -2.96592
lowerback 5.59352 -0.897539 1.93679
upperback -0.433697 -0.990836 2.13294
thorax -3.58092 -0.510079 1.19939
lowerneck -8.7707 -1.53259 -2.00776
upperneck 22.8037 -2.48638 2.8386
head 8.59322 -1.07726 1.0453
rclavicle 1.02374e-014 -1.59028e-014
rhumerus -44.1718 6.08787 -86.6947
rradius 104.787
rwrist -17.2865
rhand -10.8818 -40.7857
rfingers 7.12502
rthumb 15.1344 -70.2123
lclavicle 1.02374e-014 -1.59028e-014
lhumerus -47.172 -29.8845 110.227
lradius 91.3823
lwrist 33.554
lhand -10.8815 -8.12935
lfingers 7.12502
lthumb 15.1346 21.2973
rfemur 15.3214 5.14078 19.9437
rtibia -4.56479
rfoot -15.8571 -10.6531
rtoes 4.57837
lfemur 21.9372 -2.81787 -14.2415
ltibia -16.7076
lfoot -6.08127 22.9064
ltoes -10.1066
791
root -1.14063 18.0922 6.20956 -2.17019 -6.22275 -2.89069
lowerback 5.15614 -0.765353 1.81239
upperback -0.554416 -0.836872 2.04997
thorax -3.4597 -0.431833 1.16427
lowerneck -8.89532 -1.42009 -1.81347
upperneck 22.7654 -2.36086 2.84854
head 8.59757 -0.998686 1.02757
rclavicle 3.90115e-015 -1.03368e-014
rhumerus -45.8755 5.14054 -86.6049
rradius 103.187
rwrist -16.8365
rhand -11.7263 -41.6686
rfingers 7.12502
rthumb 14.3208 -71.1547
lclavicle 3.90115e-015 -1.03368e-014
lhumerus -48.4662 -28.4739 109.854
lradius 90.0139
lwrist 32.1358
lhand -10.7695 -8.44672
lfingers 7.12502
lthumb 15.2426 20.9717
rfemur 14.788 5.07791 19.8151
rtibia -4.00437
rfoot -16.1804 -10.4
rtoes 4.67891
lfemur 21.5784 -3.11672 -14.3798
ltibia -16.5279
lfoot -6.49082 22.9692
ltoes -10.2353
792
root -1.13894 18.0872 6.22376 -2.19351 -5.73404 -2.88152
lowerback 5.10984 -0.748776 1.85095
upperback -0.620505 -0.815941 1.92912
thorax -3.50433 -0.423476 1.01631
lowerneck -9.07945 -1.34827 -1.54967
upperneck 22.7481 -2.29819 2.82755
head 8.62101 -0.946216 0.981138
rclavicle 4.07509e-015 2.3059e-014
rhumerus -47.5665 4.0183 -86.456
rradius 101.224
rwrist -15.2683
rhand -11.7603 -41.7797
rfingers 7.12502
rthumb 14.288 -71.2682
lclavicle 4.07509e-015 2.3059e-014
lhumerus -49.7011 -27.1823 109.462
lradius 88.6381
lwrist 30.8129
lhand -10.7875 -8.53465
lfingers 7.12502
lthumb 15.2252 20.8851
rfemur 14.5357 4.60012 19.7539
rtibia -3.21792
rfoot -16.634 -9.99545
rtoes 4.89388
lfemur 21.5007 -3.67146 -14.4488
ltibia -16.4217
lfoot -6.78007 22.8069
ltoes -10.5877
793
root -1.14319 18.0907 6.23827 -1.89338 -5.6959 -2.87374
lowerback 4.76027 -0.623506 1.76069
upperback -0.748903 -0.663828 1.87962
thorax -3.44009 -0.346622 1.0001
lowerneck -9.27657 -1.2573 -1.30597
upperneck 22.7116 -2.17817 2.68683
head 8.63803 -0.880745 0.903499
rclavicle 4.09993e-016 1.59028e-015
rhumerus -49.0992 2.97614 -86.1151
rradius 99.0337
rwrist -12.5867
rhand -10.2074 -42.027
rfingers 7.12502
rthumb 15.7839 -71.4035
lclavicle 4.09993e-016 1.59028e-015
lhumerus -50.7976 -25.7305 108.968
lradius 87.276
lwrist 29.7358
lhand -10.9519 -8.45967
lfingers 7.12502
lthumb 15.0668 20.972
rfemur 13.7791 4.56375 19.7096
rtibia -2.26459
rfoot -17.0601 -9.57429
rtoes 5.16715
lfemur 21.1969 -4.04369 -14.5152
ltibia -16.3459
lfoot -7.15189 23.025
ltoes -10.466
794
root -1.14389 18.09 6.25352 -1.71664 -5.37306 -2.87495
lowerback 4.44006 -0.635848 1.76867
upperback -0.808443 -0.690174 1.81938
thorax -3.32185 -0.360212 0.931695
lowerneck -9.44079 -1.16164 -1.17103
upperneck 22.6745 -2.05494 2.64136
head 8.65126 -0.813963 0.87703
rclavicle -2.02077e-014 3.12092e-014
rhumerus -50.5277 2.40973 -86.2601
rradius 96.8959
rwrist -12.038
rhand -12.7023 -41.9962
rfingers 7.12502
rthumb 13.3802 -71.5465
lclavicle -2.02077e-014 3.12092e-014
lhumerus -51.7568 -24.2073 108.341
lradius 85.8724
lwrist 28.9703
lhand -11.2132 -8.44369
lfingers 7.12502
lthumb 14.8151 21.0067
rfemur 12.985 4.24683 19.6607
rtibia -0.866051
rfoot -17.7074 -8.9542
rtoes 5.57549
lfemur 20.9931 -4.50263 -14.5494
ltibia -16.3037
lfoot -7.29188 23.1527
ltoes -10.3839
795
root -1.14483 18.0921 6.26764 -1.45234 -5.19705 -2.82703
lowerback 4.05439 -0.595413 1.74634
upperback -0.889704 -0.649674 1.7401
thorax -3.18913 -0.340121 0.855362
lowerneck -9.56786 -1.06997 -1.1578
upperneck 22.5883 -1.9491 2.74958
head 8.64407 -0.750788 0.921354
rclavicle 1.61202e-014 5.96354e-016
rhumerus -51.6337 1.28107 -85.8044
rradius 94.1513
rwrist -8.94028
rhand -11.1998 -42.348
rfingers 7.12502
rthumb 14.828 -71.7974
lclavicle 1.61202e-014 5.96354e-016
lhumerus -52.5587 -22.7003 107.642
lradius 84.3245
lwrist 28.3122
lhand -11.4814 -8.6812
lfingers 7.12502
lthumb 14.5567 20.788
rfemur 12.3281 4.07497 19.5699
rtibia 1.11319e-014
rfoot -18.1122 -8.55164
rtoes 5.97784
lfemur 20.6794 -4.76541 -14.6171
ltibia -16.2027
lfoot -7.45656 23.222
ltoes -10.2458
